<svg xmlns="http://www.w3.org/2000/svg" viewBox="0 0 645 690"><title>logo-cover-645x690</title><path d="M639.09-1.33H-414.24a6,6,0,0,0-6,6V685.33a6,6,0,0,0,6,6H639.09a6,6,0,0,0,6-6V4.67A6,6,0,0,0,639.09-1.33ZM126.71,155.92a8.25,8.25,0,1,1,16.5,0v27.5a8.25,8.25,0,1,1-16.5,0Zm-52.36,7a8.26,8.26,0,0,1,11.34,2.76l14.74,24.2a8.25,8.25,0,0,1-14.1,8.58l-14.74-24.2A8.25,8.25,0,0,1,74.35,163ZM29.64,206.87a8.26,8.26,0,0,1,11.25-3.13L66,217.93a8.25,8.25,0,0,1-4.07,15.4v0a8,8,0,0,1-4-1.1L32.77,218.11A8.25,8.25,0,0,1,29.64,206.87ZM13,268.08a8.25,8.25,0,0,1,8.4-8.1l29.15.55a8.25,8.25,0,1,1-.15,16.5h-.16l-29.15-.55A8.24,8.24,0,0,1,13,268.08ZM67.14,318,41.07,333a8,8,0,0,1-4.11,1.1,8.25,8.25,0,0,1-4.14-15.4l26.07-15.07A8.25,8.25,0,1,1,67.14,318Zm557.21-6.38h0c0,1.43-.11,3.19-.22,4.67H578.9a249.93,249.93,0,0,1,2.55,35.64A245.84,245.84,0,0,1,348.9,597.32C213.32,604.67,97.46,500.71,90.11,365.13l-2.67,4.65a8.25,8.25,0,0,1-14.3-8.25L86.67,338.1a8.15,8.15,0,0,1,3.67-3.3q.45-6.54,1.21-13a69.4,69.4,0,0,1,42.75-124,71.19,71.19,0,0,1,9.23.62A250.28,250.28,0,0,1,161.8,178a245.65,245.65,0,0,1,70.58-49.24c123.3-57,269.48-3.33,326.52,120A46.54,46.54,0,0,1,573,265.37c1.65-.11,3.3-.22,4.95-.22h.13a46.36,46.36,0,0,1,46.29,46.42Z" style="fill:#fff"/><g style="opacity:0.4"><path d="M428.67,238.86a26.63,26.63,0,0,0,.11-3,30,30,0,0,0-29.94-30.14h-.2c-1.1,0-2.2.11-3.19.11a30.13,30.13,0,0,0-52.36-2.64,35.69,35.69,0,0,0-4.73-.33A30.43,30.43,0,0,0,313,216.75a28.25,28.25,0,0,0-7.59-1.1,25.8,25.8,0,0,0-25.63,23.21Z" style="fill:#fff"/><path d="M428.67,238.86a26.63,26.63,0,0,0,.11-3,30,30,0,0,0-29.94-30.14h-.2c-1.1,0-2.2.11-3.19.11a30.13,30.13,0,0,0-52.36-2.64,35.69,35.69,0,0,0-4.73-.33A30.43,30.43,0,0,0,313,216.75a28.25,28.25,0,0,0-7.59-1.1,25.8,25.8,0,0,0-25.63,23.21Z" style="fill:#fff"/><path d="M625.35,311.57a46.36,46.36,0,0,0-46.29-46.42h-.13c-1.65,0-3.3.11-4.95.22a46.54,46.54,0,0,0-14.08-16.66c-57-123.29-203.22-177-326.52-120A245.65,245.65,0,0,0,162.8,178a250.28,250.28,0,0,0-18.27,20.39,71.19,71.19,0,0,0-9.23-.62,69.4,69.4,0,0,0-42.75,124q-.76,6.46-1.21,13a8.15,8.15,0,0,0-3.67,3.3L74.14,361.53a8.25,8.25,0,0,0,14.3,8.25l2.67-4.65C98.46,500.71,214.32,604.67,349.9,597.32A245.84,245.84,0,0,0,582.45,351.88a249.93,249.93,0,0,0-2.55-35.64h45.23c.11-1.48.22-3.24.22-4.67ZM523.05,454,422.18,352.49c-15.62,17.05-110.77,100.21-113.85,103C308.33,455.34,342,420,342,420l-18.7-17.6c-.11,0-8.36-8.25-8.36-8.25-2.09,1.68-53.79,42.6-134.82,101.53A211.83,211.83,0,0,1,124,351.83q0-8.13.6-16.12a69.42,69.42,0,0,0,52.31-124.13c77.36-88.24,211.61-97.05,299.86-19.69a212.67,212.67,0,0,1,41.86,50,47.06,47.06,0,0,0-25.3,19.31,53.3,53.3,0,0,0-7.26-.44,46.72,46.72,0,0,0-39.16,21.34A39.88,39.88,0,0,0,397.28,309a40.31,40.31,0,0,0-1.44,7.22H546.28A212.47,212.47,0,0,1,523.09,454Z" style="fill:#fff"/><path d="M625.35,311.57a46.36,46.36,0,0,0-46.29-46.42h-.13c-1.65,0-3.3.11-4.95.22a46.54,46.54,0,0,0-14.08-16.66c-57-123.29-203.22-177-326.52-120A245.65,245.65,0,0,0,162.8,178a250.28,250.28,0,0,0-18.27,20.39,71.19,71.19,0,0,0-9.23-.62,69.4,69.4,0,0,0-42.75,124q-.76,6.46-1.21,13a8.15,8.15,0,0,0-3.67,3.3L74.14,361.53a8.25,8.25,0,0,0,14.3,8.25l2.67-4.65C98.46,500.71,214.32,604.67,349.9,597.32A245.84,245.84,0,0,0,582.45,351.88a249.93,249.93,0,0,0-2.55-35.64h45.23c.11-1.48.22-3.24.22-4.67ZM523.05,454,422.18,352.49c-15.62,17.05-110.77,100.21-113.85,103C308.33,455.34,342,420,342,420l-18.7-17.6c-.11,0-8.36-8.25-8.36-8.25-2.09,1.68-53.79,42.6-134.82,101.53A211.83,211.83,0,0,1,124,351.83q0-8.13.6-16.12a69.42,69.42,0,0,0,52.31-124.13c77.36-88.24,211.61-97.05,299.86-19.69a212.67,212.67,0,0,1,41.86,50,47.06,47.06,0,0,0-25.3,19.31,53.3,53.3,0,0,0-7.26-.44,46.72,46.72,0,0,0-39.16,21.34A39.88,39.88,0,0,0,397.28,309a40.31,40.31,0,0,0-1.44,7.22H546.28A212.47,212.47,0,0,1,523.09,454Z" style="fill:#fff"/><path d="M136,191.67a8.25,8.25,0,0,1-8.25-8.25v-27.5a8.25,8.25,0,1,1,16.5,0v27.5A8.25,8.25,0,0,1,136,191.67ZM94.39,202.45a8.25,8.25,0,0,1-7.06-4l-14.74-24.2a8.25,8.25,0,0,1,14.1-8.58l14.74,24.2a8.25,8.25,0,0,1-7,12.54ZM62.91,233.36a8,8,0,0,1-4-1.1L33.77,218.11a8.25,8.25,0,1,1,8.12-14.37L67,217.93a8.25,8.25,0,0,1-4.07,15.4ZM51.37,277h-.16l-29.15-.55a8.25,8.25,0,0,1,.31-16.5l29.15.55a8.25,8.25,0,1,1-.15,16.5ZM38,334.12a8.25,8.25,0,0,1-4.14-15.4l26.07-15.07A8.25,8.25,0,1,1,68.14,318L42.07,333A8,8,0,0,1,38,334.12ZM138.16,389a8.25,8.25,0,0,1-8.25-8.25h0V352.82a8.25,8.25,0,0,1,16.5,0v27.94a8.25,8.25,0,0,1-8.25,8.25Zm56.11-15.95a8.21,8.21,0,0,1-7.12-4.07l-14.3-24.31a8.24,8.24,0,0,1,14.21-8.36l14.3,24.31a8.23,8.23,0,0,1-7.09,12.43Zm38.15-42.35a8.15,8.15,0,0,1-4.14-1.1l-22.67-13.2a8.27,8.27,0,1,1,8.31-14.3l22.66,13.2a8.25,8.25,0,0,1-4.16,15.4ZM220,275.38a8.25,8.25,0,1,1-.2-16.5h0l27.17-.66a8.25,8.25,0,0,1,.4,16.5l-27.17.66Zm-11.33-41a8.25,8.25,0,0,1-4.4-15.19l22.66-14.52a8.25,8.25,0,0,1,8.91,13.89l-22.66,14.53A8.19,8.19,0,0,1,208.67,234.35Z" style="fill:#fff"/><path d="M136,191.67a8.25,8.25,0,0,1-8.25-8.25v-27.5a8.25,8.25,0,1,1,16.5,0v27.5A8.25,8.25,0,0,1,136,191.67ZM94.39,202.45a8.25,8.25,0,0,1-7.06-4l-14.74-24.2a8.25,8.25,0,0,1,14.1-8.58l14.74,24.2a8.25,8.25,0,0,1-7,12.54ZM62.91,233.36a8,8,0,0,1-4-1.1L33.77,218.11a8.25,8.25,0,1,1,8.12-14.37L67,217.93a8.25,8.25,0,0,1-4.07,15.4ZM51.37,277h-.16l-29.15-.55a8.25,8.25,0,0,1,.31-16.5l29.15.55a8.25,8.25,0,1,1-.15,16.5ZM38,334.12a8.25,8.25,0,0,1-4.14-15.4l26.07-15.07A8.25,8.25,0,1,1,68.14,318L42.07,333A8,8,0,0,1,38,334.12ZM138.16,389a8.25,8.25,0,0,1-8.25-8.25h0V352.82a8.25,8.25,0,0,1,16.5,0v27.94a8.25,8.25,0,0,1-8.25,8.25Zm56.11-15.95a8.21,8.21,0,0,1-7.12-4.07l-14.3-24.31a8.24,8.24,0,0,1,14.21-8.36l14.3,24.31a8.23,8.23,0,0,1-7.09,12.43Zm38.15-42.35a8.15,8.15,0,0,1-4.14-1.1l-22.67-13.2a8.27,8.27,0,1,1,8.31-14.3l22.66,13.2a8.25,8.25,0,0,1-4.16,15.4ZM220,275.38a8.25,8.25,0,1,1-.2-16.5h0l27.17-.66a8.25,8.25,0,0,1,.4,16.5l-27.17.66Zm-11.33-41a8.25,8.25,0,0,1-4.4-15.19l22.66-14.52a8.25,8.25,0,0,1,8.91,13.89l-22.66,14.53A8.19,8.19,0,0,1,208.67,234.35Z" style="fill:#fff"/><path d="M428.67,238.86a26.63,26.63,0,0,0,.11-3,30,30,0,0,0-29.94-30.14h-.2c-1.1,0-2.2.11-3.19.11a30.13,30.13,0,0,0-52.36-2.64,35.69,35.69,0,0,0-4.73-.33A30.43,30.43,0,0,0,313,216.75a28.25,28.25,0,0,0-7.59-1.1,25.8,25.8,0,0,0-25.63,23.21Z" style="fill:#fff"/><g style="opacity:0"><path d="M625.35,311.57a46.36,46.36,0,0,0-46.29-46.42h-.13c-1.65,0-3.3.11-4.95.22a46.54,46.54,0,0,0-14.08-16.66c-57-123.29-203.22-177-326.52-120A245.65,245.65,0,0,0,162.8,178a250.28,250.28,0,0,0-18.27,20.39,71.19,71.19,0,0,0-9.23-.62,69.4,69.4,0,0,0-42.75,124q-.76,6.46-1.21,13a8.15,8.15,0,0,0-3.67,3.3L74.14,361.53a8.25,8.25,0,0,0,14.3,8.25l2.67-4.65C98.46,500.71,214.32,604.67,349.9,597.32A245.84,245.84,0,0,0,582.45,351.88a249.93,249.93,0,0,0-2.55-35.64h45.23c.11-1.48.22-3.24.22-4.67ZM523.05,454,422.18,352.49c-15.62,17.05-110.77,100.21-113.85,103C308.33,455.34,342,420,342,420l-18.7-17.6c-.11,0-8.36-8.25-8.36-8.25-2.09,1.68-53.79,42.6-134.82,101.53A211.83,211.83,0,0,1,124,351.83q0-8.13.6-16.12a69.42,69.42,0,0,0,52.31-124.13c77.36-88.24,211.61-97.05,299.86-19.69a212.67,212.67,0,0,1,41.86,50,47.06,47.06,0,0,0-25.3,19.31,53.3,53.3,0,0,0-7.26-.44,46.72,46.72,0,0,0-39.16,21.34A39.88,39.88,0,0,0,397.28,309a40.31,40.31,0,0,0-1.44,7.22H546.28A212.47,212.47,0,0,1,523.09,454Z" style="fill:#fff"/></g><g style="opacity:0.33"><path d="M136,191.67a8.25,8.25,0,0,1-8.25-8.25v-27.5a8.25,8.25,0,1,1,16.5,0v27.5A8.25,8.25,0,0,1,136,191.67ZM94.39,202.45a8.25,8.25,0,0,1-7.06-4l-14.74-24.2a8.25,8.25,0,0,1,14.1-8.58l14.74,24.2a8.25,8.25,0,0,1-7,12.54ZM62.91,233.36a8,8,0,0,1-4-1.1L33.77,218.11a8.25,8.25,0,1,1,8.12-14.37L67,217.93a8.25,8.25,0,0,1-4.07,15.4ZM51.37,277h-.16l-29.15-.55a8.25,8.25,0,0,1,.31-16.5l29.15.55a8.25,8.25,0,1,1-.15,16.5ZM38,334.12a8.25,8.25,0,0,1-4.14-15.4l26.07-15.07A8.25,8.25,0,1,1,68.14,318L42.07,333A8,8,0,0,1,38,334.12ZM138.16,389a8.25,8.25,0,0,1-8.25-8.25h0V352.82a8.25,8.25,0,0,1,16.5,0v27.94a8.25,8.25,0,0,1-8.25,8.25Zm56.11-15.95a8.21,8.21,0,0,1-7.12-4.07l-14.3-24.31a8.24,8.24,0,0,1,14.21-8.36l14.3,24.31a8.23,8.23,0,0,1-7.09,12.43Zm38.15-42.35a8.15,8.15,0,0,1-4.14-1.1l-22.67-13.2a8.27,8.27,0,1,1,8.31-14.3l22.66,13.2a8.25,8.25,0,0,1-4.16,15.4ZM220,275.38a8.25,8.25,0,1,1-.2-16.5h0l27.17-.66a8.25,8.25,0,0,1,.4,16.5l-27.17.66Zm-11.33-41a8.25,8.25,0,0,1-4.4-15.19l22.66-14.52a8.25,8.25,0,0,1,8.91,13.89l-22.66,14.53A8.19,8.19,0,0,1,208.67,234.35Z" style="fill:#fff"/></g></g></svg>