<svg xmlns="http://www.w3.org/2000/svg" viewBox="0 0 936 369.6"><title>mountain-tours-bg-bw</title><polygon points="402.6 29.6 647.6 369.6 -143.4 369.6 402.6 29.6" style="fill:#b7b7b6"/><polygon points="935.6 102.6 1260.6 369.6 582.6 369.6 935.6 102.6" style="fill:#ccc"/><polygon points="935.6 102.6 833.49 179.85 935.61 205.53 935.6 102.6" style="fill:#fceec9"/><polygon points="935.6 102.6 1020.1 172.1 935.61 205.53 935.6 102.6" style="fill:#f5f5f5"/><polygon points="-0.4 102.6 324.6 369.6 -353.4 369.6 -0.4 102.6" style="fill:#ccc"/><polygon points="-0.4 102.6 84.1 172.1 -0.39 205.53 -0.4 102.6" style="fill:#fffbe7"/><polygon points="123.99 143.32 289.84 253.97 328.26 369.6 -99.74 369.6 123.99 143.32" style="fill:#b2b2b2"/><polygon points="345.81 157.37 583.6 369.6 328.26 369.6 289.84 253.97 345.81 157.37" style="fill:#ccc"/><polygon points="123.99 143.32 220.6 45.6 288.93 254.27 123.99 143.32" style="fill:#fceec9"/><polygon points="345.81 157.37 288.93 254.27 220.6 45.6 345.81 157.37" style="fill:#fffbe7"/><polygon points="482.6 116.6 579.1 210.6 579.1 369.48 281.1 369.36 482.6 116.6" style="fill:#b2b2b2"/><polygon points="579.1 210.6 689.1 127.6 892.57 369.6 579.6 369.48 579.1 210.6" style="fill:#ccc"/><polygon points="577.47 0.1 482.6 116.6 579.22 210.6 577.47 0.1" style="fill:#fceec9"/><polygon points="577.35 0.1 689.1 127.6 579.1 210.6 577.35 0.1" style="fill:#fffbe7"/></svg>