<svg xmlns="http://www.w3.org/2000/svg" xmlns:xlink="http://www.w3.org/1999/xlink" style="display:none"><symbol viewBox='0 0 72.79 48' id='icon-ascent'><title>ascent</title><path d="M7.97 5.36L12.6 8.6 0 24.88l5 3.82 12.58-16.89 4.55 3.35-.49-13.86L7.97 5.36zM28.18 48h44.61L38.83 0 3.14 48h20.23l5.86-5.85H17.26l21.57-28.9 19.83 28.9H34.03L28.18 48z"></path></symbol><symbol viewBox='0 0 76 89.47' id='icon-base-camp'><title>base-camp</title><path d="M57.06 34.38L39 21.31v-3.84h37v-.16l-10-5.79 10-5.8v-.25H39v-.92a2.1 2.1 0 0 0 1.38-2.19 2.41 2.41 0 0 0-4.81 0A2.14 2.14 0 0 0 37 4.55v16.82l-18 13L0 48v41.47h38V48.81C40.66 71 51.1 86.62 54 89.47h22V48z"></path></symbol><symbol viewBox='0 0 55.05 42.96' id='icon-boot'><title>boot</title><path d="M13 4a1 1 0 0 1 1 1v1H3V5a1 1 0 0 1 1-1zm39.87 29.22C37.23 37.39 19.45 37.37 0 33.15c0-9.8.78-12.4 1.49-14.89C2.09 16.16 2.71 14 2.92 8H15a1 1 0 0 0 1-1V3.27A7.84 7.84 0 0 1 22 0a64 64 0 0 0 .66 9H20a1 1 0 0 0 0 2h3c.14.73.3 1.43.48 2.11l-2.8.89a1 1 0 0 0-.63 1.27 1 1 0 0 0 1.27.63l2.75-.9a21.56 21.56 0 0 0 1.17 2.91L22.6 19a1 1 0 1 0 .8 1.84l2.8-1.21a17 17 0 0 0 1.55 2.13l-2.46 2.45a1 1 0 0 0 1.42 1.42l2.45-2.46a14.68 14.68 0 0 0 1.9 1.42l-1 3a1 1 0 0 0 1.9.64l.91-2.73.79.35h.17c.72.13 1.45.22 2.18.28V29a1 1 0 1 0 2 0v-2.7a44.31 44.31 0 0 0 5.4-.42c5.38-.66 8.17-.97 9.46 7.34zM1 43a1 1 0 0 1-1-1v-6.81a134.07 134.07 0 0 0 28 3.15 97.75 97.75 0 0 0 25.6-3.25l1.25 1.67a1.4 1.4 0 0 1 .1.16 1 1 0 0 1-.46 1.33C48.56 41.24 39 42.72 31 42.93a1 1 0 0 1-1-1 .94.94 0 0 0-.32-.7 1 1 0 0 0-.74-.27 32.13 32.13 0 0 1-9.62-1A1.19 1.19 0 0 0 19 40a1 1 0 0 0-1 1v1a1 1 0 0 1-1 1z"></path></symbol><symbol viewBox='0 0 90 49.5' id='icon-boudhanath'><title>boudhanath</title><path d="M75 43.5v-5h-9v-2h-2v-1h-1.4a20 20 0 0 0-13.1-10v-4h1v-2h-1v-1l-3-9v-2h1V3H46l-1-3-1 3h-1.5v4.5h1v2l-3 9v1h-1v2h1v4a20 20 0 0 0-13.1 10H26v1h-2v2h-9v5H0v6h90v-6z"></path></symbol><symbol viewBox='0 0 80 38.52' id='icon-bus'><title>bus</title><path d="M22 33.16a5.36 5.36 0 1 1-5.36-5.36A5.36 5.36 0 0 1 22 33.16zm41.36-5.36a5.36 5.36 0 1 0 5.36 5.36 5.36 5.36 0 0 0-5.36-5.36zM80 13.26v13.91A4.85 4.85 0 0 1 75.14 32h-5.21a6.57 6.57 0 0 0-13 0H23.06a6.57 6.57 0 0 0-13 0h-5A4.86 4.86 0 0 1 0 27.36V4.77A4.79 4.79 0 0 1 4.81 0h61.62A13.28 13.28 0 0 1 80 13zM19 4H4v11h15zm18 0H22v11h15zm18 0H40v11h15zm21.38 11c0-6-3.58-11-9.56-11H58v11z"></path></symbol><symbol viewBox='0 0 100 97.82' id='icon-cake'><title>cake</title><path d="M76.89 20.68a14.15 14.15 0 0 1-3.07 9.68c-3.57 4.48-10.06 7.26-16.93 7.26a24.1 24.1 0 0 1-4.89-.51 11.38 11.38 0 0 1-1.53 2.53c-2.77 3.46-7.75 5.61-13 5.61a15.85 15.85 0 0 1-10.93-4 11.41 11.41 0 0 1-3.42-6.52Q11.59 47.55 0 60.33v37.49h.39Q50 82.51 100 67.55V29.88q-11.53-4.62-23.11-9.2zm16.47 43.58c-29 8.58-57.61 17.51-86.53 26.17V77.8c1.62-.06 3 .82 4.69 1.07A19.13 19.13 0 0 0 25 75.67C32.15 70.93 37.63 62 49 60.89c8.45-.8 12.3 3.15 19.92 3.21 10.71.06 19.29-6.28 24.23-12.11.47 3.32.08 8.65.21 12.27zm-4.1-13.9C84.9 55.55 77.63 61 67.58 60.33c-6.35-.44-10.84-3.89-18.36-2.85-10.14 1.39-17.36 6.92-23.44 12.46-2.1 1.92-4.19 4.37-6.64 5.16C15 76.45 9.92 75 6.84 73v-8.58c28.73-8.7 58-17.84 86.52-26.17.91 5.67-1.36 8.8-4.1 12.11z"></path><path d="M42.69 17.65c.76-.22 1.12.64 1.2 1.2a2.23 2.23 0 0 1-.35 1.5c-.66 1.13-1.77 2-2.46 3.09a3.89 3.89 0 0 0-.59 2.31 19.53 19.53 0 0 1 2.76 0c2.47.2 3.67 1.65 4.39 3.66C52.4 42.84 27 45.58 27.71 32.06a7.12 7.12 0 0 1 9.59-6.31 19.83 19.83 0 0 1 2.52-4.88 20.92 20.92 0 0 1 1.6-2.05c.35-.38.71-1 1.27-1.17zM71.37 16.84c-1-2.88-2.75-4.94-6.26-5.23a28.74 28.74 0 0 0-3.94 0A5.44 5.44 0 0 1 62 8.32c1-1.59 2.55-2.81 3.5-4.41a3.2 3.2 0 0 0 .5-2.16c-.11-.78-.63-2-1.72-1.7-.79.24-1.3 1.13-1.8 1.67a32.06 32.06 0 0 0-2.3 2.92 28.79 28.79 0 0 0-3.59 7c-4.69-1.45-8.41 0-10.79 2.45a5.75 5.75 0 0 1 2.76 4.24 6.2 6.2 0 0 1-.87 4.09.86.86 0 0 1-.1.16 9.55 9.55 0 0 1 4.53 5.53A13.64 13.64 0 0 1 53 32.9C62.77 35 75.67 29 71.37 16.84z"></path></symbol><symbol viewBox='0 0 213.5 71.1' id='icon-cloud'><title>cloud</title><path d="M213.3 71.1c.1-1.4.2-2.9.2-4.3a43.15 43.15 0 0 0-43.1-43.2h-.1c-1.6 0-3.1.1-4.6.2a43.18 43.18 0 0 0-75-3.8 53.23 53.23 0 0 0-6.8-.5 43.36 43.36 0 0 0-36.4 19.9 38.68 38.68 0 0 0-10.8-1.6A36.85 36.85 0 0 0 0 71.1z"></path></symbol><symbol viewBox='0 0 90.52 53.04' id='icon-departure'><title>departure</title><path d="M10.89 23.15c1.23-.14 16.3.66 23.44-1.28C55.78 16 76.53 10.31 82.64 6.41c8.1-5.18-6.12-9.41-24.47-3.57L53.61 4.3 35.4 0l-5.17 1.65 7.43 7.75-17.23 5.51L5.17 5.28 0 6.94l8.9 11.68c-3.68 1.49-2.81 5.07 1.99 4.53zM5.04 49.04h85.48v4H5.04z"></path></symbol><symbol viewBox='0 0 71.04 48' id='icon-descent'><title>descent</title><path d="M56.5 23.94l4.75-3.05L49.32 4.12 54.46.49l11.9 17.38 4.68-3.16-1.05 13.83-13.49-4.6zM25.04 48h44.61L35.7 0 0 48h20.23l5.86-5.85H14.12l21.58-28.9 19.82 28.9H30.9L25.04 48z"></path></symbol><symbol viewBox='0 0 12.45 8.43' id='icon-down04'><title>down</title><path d="M.43 0a.42.42 0 0 1 .33.17l5.47 7.14L11.69.17a.42.42 0 0 1 .6-.08.44.44 0 0 1 .08.6l-5.8 7.57a.41.41 0 0 1-.34.17.4.4 0 0 1-.33-.17L.09.68A.41.41 0 0 1 .17.09.41.41 0 0 1 .43 0z"></path></symbol><symbol viewBox='0 0 92.61 94.9' id='icon-dragon'><title>dragon</title><path d="M7.1 39.3a.47.47 0 0 0 .5.5.47.47 0 0 0 .5-.5c0-10 4.1-12.5 8.5-15.2 5-3.1 10.7-6.6 10.4-21.5a1.39 1.39 0 0 0 .7-1.2 1.4 1.4 0 1 0-2.8 0A1.5 1.5 0 0 0 26 2.8c.2 14.2-5 17.4-10 20.5-4.4 2.7-8.9 5.5-8.9 16z"></path><path d="M5.7 39.8h.2a.52.52 0 0 0 .3-.7c-4.4-9.7-.4-13.7 3.5-17.5 2.2-2.2 4.4-4.3 4.5-7.3a1.31 1.31 0 0 0 .6-1.2 1.4 1.4 0 0 0-2.8 0 1.5 1.5 0 0 0 1.1 1.4c-.2 2.5-2 4.3-4.1 6.3-3.8 3.8-8.5 8.4-3.8 18.7a.55.55 0 0 0 .5.3z"></path><path d="M63.7 19.7a9.15 9.15 0 0 1-5.7-.2c-2.4-.6-4.9-1.2-8.5 1a.62.62 0 0 0-.2.7.4.4 0 0 0 .4.2.37.37 0 0 0 .3-.1c3.3-1.9 5.4-1.4 7.8-.9 1.9.4 3.8.9 6.2.2a.45.45 0 0 0 .3-.6c-.1-.2-.4-.4-.6-.3z" fill="none"></path><circle cx="19.1" cy="32.8" r=".8"></circle><path d="M63.7 19.7a9.15 9.15 0 0 1-5.7-.2c-2.4-.6-4.9-1.2-8.5 1a.62.62 0 0 0-.2.7.4.4 0 0 0 .4.2.37.37 0 0 0 .3-.1c3.3-1.9 5.4-1.4 7.8-.9 1.9.4 3.8.9 6.2.2a.45.45 0 0 0 .3-.6c-.1-.2-.4-.4-.6-.3z" fill="none"></path><circle cx="20.1" cy="32.8" r="1.8" fill="none"></circle><path d="M64 20.7a.47.47 0 1 0-.3-.9 9.15 9.15 0 0 1-5.7-.2c-2.4-.6-4.9-1.2-8.5 1a.62.62 0 0 0-.2.7.4.4 0 0 0 .4.2.37.37 0 0 0 .3-.1c3.3-1.9 5.4-1.4 7.8-.9a10.66 10.66 0 0 0 6.2.2z" fill="none"></path><circle cx="20.1" cy="32.8" r="1.8" fill="none"></circle><path d="M64 20.7a.47.47 0 1 0-.3-.9 9.15 9.15 0 0 1-5.7-.2c-2.4-.6-4.9-1.2-8.5 1a.62.62 0 0 0-.2.7.4.4 0 0 0 .4.2.37.37 0 0 0 .3-.1c3.3-1.9 5.4-1.4 7.8-.9a10.66 10.66 0 0 0 6.2.2z" fill="none"></path><circle cx="20.1" cy="32.8" r="1.8" fill="none"></circle><path d="M84.8 40.3c-6.3-1.6-8.7-5.3-11-8.8-1.7-2.7-3.4-5.3-6.6-6.4a17.07 17.07 0 0 1-5.5 1.6h-.1a.47.47 0 0 1-.5-.5.56.56 0 0 1 .5-.6c4.8 0 11.7-6.6 12.8-10.9a.75.75 0 0 0-.1-.5.44.44 0 0 0-.5-.1 27.31 27.31 0 0 1-13.5-.7c-4.5-1.2-8.5-2.1-14.9 2.3 0 0-.5 2-.8 2.9a.55.55 0 0 1-.5.3h-.2a.52.52 0 0 1-.3-.7c.2-.7.4-1.3.6-2A18 18 0 0 0 43 5c-.9-1.8-2.2-2.8-3.4-2.8a.52.52 0 0 0-.4.2.6.6 0 0 0-.1.4c1.6 8.6-4.3 16.3-6.3 17.8-.3-3.1-2.3-5.5-4.7-5.5a.47.47 0 0 0-.5.5c0 7.7-1.9 12.9-3.7 13.3a5.14 5.14 0 0 0-3.7-1.5 5.89 5.89 0 0 0-3.9 1.6 5.22 5.22 0 0 0-1.7 3.9 6.63 6.63 0 0 0 1.1 3.6l-8.1 5.7a4.68 4.68 0 0 0-2.8-.9A4.8 4.8 0 0 0 0 46.1a.37.37 0 0 0 .1.3A15.72 15.72 0 0 1 3 50.8c.8 1.4 1.3 2.5 2.3 2.7.8.2 1.7-.2 2.9-1.1 3 2.4 6.1-.6 10.3-4.7C23 43.4 29 37.5 38.3 34a21.31 21.31 0 0 1 .2 4.4c-5.3.2-7.7 3.9-9.7 7.1s-3.9 6.1-8.1 6.1a.5.5 0 1 0 0 1c4.7 0 6.9-3.3 8.9-6.5s4.1-6.4 8.8-6.7a23.33 23.33 0 0 1-5.5 12.1c-4.3 5.2-10.2 8.5-15.4 8.6a4.9 4.9 0 0 0-3.4-1.8 5.41 5.41 0 0 0-4.6 1.2.44.44 0 0 0-.1.3.76.76 0 0 0 .2.4 22.18 22.18 0 0 1 5.9 9.3c1.2 3.1 2.3 5.7 5.5 6.8h.2a.37.37 0 0 0 .3-.1.52.52 0 0 0 .2-.4 31.18 31.18 0 0 1 .5-5.5 4.59 4.59 0 0 0 3.7 1.8.51.51 0 0 0 .5-.6 13.73 13.73 0 0 1 3.9-9.3 15.26 15.26 0 0 1 11.1-4.7A15.54 15.54 0 0 0 55 49.3c2.3-4.6-1.8-9.4-4.7-10.3a5 5 0 0 0-5.2 1.4c-2.4 2.5-1.3 5.8 1.4 6.3 1.9.4 4.2-1.6 3.4-3.5a1.8 1.8 0 0 0-1.5-1.2 1.29 1.29 0 0 0-1.1.7.51.51 0 1 1-.9-.5 2.23 2.23 0 0 1 2-1.3 2.87 2.87 0 0 1 2.4 1.9 3.49 3.49 0 0 1-.8 3.7 4.11 4.11 0 0 1-5.1.5 4.72 4.72 0 0 1-.5-7.4 6.45 6.45 0 0 1 6.3-1.6 3.51 3.51 0 0 1 1.4.6 9.34 9.34 0 0 1 .7-4.1 6.33 6.33 0 0 0 .4-1.9 6.05 6.05 0 0 0-1.8.1c-1.7.2-3.8.5-5.1-.7a3.25 3.25 0 0 1-1-2.6.5.5 0 1 1 1 0 2.44 2.44 0 0 0 .6 1.8c.9.8 2.8.6 4.3.4s2.4-.3 2.8.4 0 1.5-.3 2.7c-.5 1.5-1.1 3.4-.4 4.7 3 2.3 4.8 6.7 4.1 12-1.3 10.4-20 22.5-20 22.5a25.64 25.64 0 0 0-12 20.6v.3a.1.1 0 0 0 .1.1h.6l.1-.1c4.4-5.2 8.3-6.4 13.6-7.5-.1-.1-.1-.2-.1-.4 0-3 3.3-6.5 6.4-10 2.4-2.6 4.6-5 4.9-6.7.1-.3.3-.5.6-.4s.5.3.4.6c-.4 2-2.7 4.5-5.2 7.2-2.9 3.1-6.1 6.7-6.1 9.3.3-.2.6-.5 1-.8 3.5-2.6 10.7-8 16.4-7.3-1.3-4.7.6-7.7 2.7-10.9 2.4-3.7 4.8-7.4 2.5-14.3-.1-.3.1-.6.3-.6s.6.1.6.3c2.4 7.3-.3 11.5-2.6 15.1-2.1 3.2-3.9 6-2.5 10.4 7.9-.2 13-5.8 15.2-16.6 0-.1 1.5-11.1-3.6-19.4A15.67 15.67 0 0 0 60 35.4c-.3-.1-.5-.3-.4-.6s.3-.5.6-.4a16.63 16.63 0 0 1 11.3 7.9 30 30 0 0 1 4.2 14.3c1.3-4.3 3.3-8.3 6.5-9.5 2.5-1 5.7-.2 9.4 2.5a.75.75 0 0 0 .5.1c.2-.1.3-.2.3-.4 1.6-6.5-6.6-8.8-7.6-9zm-64.7-5.7a1.8 1.8 0 1 1 1.8-1.8 1.79 1.79 0 0 1-1.8 1.8zm37.6-14.1c-2.3-.6-4.5-1.1-7.8.9-.1 0-.2.1-.3.1a.52.52 0 0 1-.4-.2c-.1-.2-.1-.6.2-.7 3.6-2.2 6.1-1.6 8.5-1a10.87 10.87 0 0 0 5.7.2c.3-.1.6.1.6.3s-.1.6-.3.6a10.75 10.75 0 0 1-6.2-.2z"></path></symbol><symbol viewBox='0 0 270.55 188.02' id='icon-everest'><title>everest</title><path d="M98.95 37.46L0 188.02l70.15-.06 64.2-99.67-35.4-50.83zM161.75 45.29L132.35 0l-19.7 29.26 30.9 45.37 18.2-29.34zM270.55 187.84l-93.3-137.7-27.67 42.97-59.83 94.73h180.8z"></path></symbol><symbol viewBox='0 0 3.79 2.31' id='icon-eye'><title>eye</title><path d="M1 .72L.81.2l.44-.14c.05.13.09.25.13.38s0 .14.06.16.12 0 .18 0V0h.47v.62c.13 0 .13 0 .18-.1L2.5.07l.44.15-.2.57h.18l.35-.31.33.31-.3.31.49.47a2.52 2.52 0 0 1-3.57 0A2.62 2.62 0 0 1 0 1.32L.37 1 .11.75.43.42l.33.33a.08.08 0 0 0 .1 0zM2 1.8a1.85 1.85 0 0 0 1-.26 1.87 1.87 0 0 0-.84-.4.43.43 0 0 1-.06.6.27.27 0 0 1-.1.06zM.76 1.37a2.09 2.09 0 0 0 .91.41c-.25-.23-.27-.36-.09-.68a2 2 0 0 0-.82.27z"></path></symbol><symbol viewBox='0 0 81.67 71.11' id='icon-gate'><title>gate</title><path d="M81.67 16.35h-13v-4.26q5.75-1.25 11.55-3L77.45 0Q40.64 11.1 2.73 0L0 9.17q6.65 1.92 13.13 3.17v4H2.78v9.56h9L2.92 70.32l23.64.79.05-45.2h28.54l.05 45.2 23.74-.79L70 25.91h11.67v-9.56zm-47.58 0H26v-2c2.74.3 5.45.51 8.12.65zm21.71 0H47V15q4.41-.2 8.82-.74z"></path></symbol><symbol viewBox='0 0 90.5 49.98' id='icon-glacier'><title>glacier</title><path d="M90.5 50H0V36.3l.08-.07 18.53-18 13.08 4L37.1 12l1.73 2 2.4-1.84L49.76 14 64.57 2.55l6.34 4L90.5 0zm-90-.5H90V.7L70.85 7.08l-6.26-3.93-14.71 11.42-8.53-1.91-2.59 2-1.56-1.83-5.26 10-13.19-4.04L.5 36.52z"></path><path d="M7.8 31.28l11.6-10.76 5.95 1.94L7.8 31.28zM32.9 22.2l4.01-8.46 1.57 1.17M33.35 22.74l8.19-9.63 7.74 1.8M50.95 14.3l10.48-8.03 8.19.99M62.3 5.73l2.4-2.16 4.92 3.14-7.32-.98zM2.57 35.61L27.32 22.2l8.37 2.07L2.57 35.61zM71.84 7.53l16.75-4.5.18 22.87L71.84 7.53zM71.24 8.95l.62 30.36 16.93-10.4L71.24 8.95zM35.69 22.74L68.9 8.95 70.89 43l-35.2-20.26zM71.86 41.15l17.39-10.68v5.14l-17.39 5.54zM71.84 43.89l17.41-6.94v11.56H71.86l-.02-4.62zM36.83 25.04v23.47h11.19L36.83 25.04zM39.16 25.97L50 48.51l19.62-.66v-3.96M35.69 25.04v6.24l-5.31-3.96 5.31-2.28zM28.58 28.16l7.11 4.62v7.95l-7.11-12.57zM26.65 28.91l-.02 19.6h8.76V43l-8.74-14.09zM1.68 37.78l23.67-8.87-.9 19.6H1.68V37.78z"></path></symbol><symbol viewBox='0 0 76 85.52' id='icon-hotel'><title>hotel</title><path d="M0 20.52h70v6H0zM0 79.52h70v6H0z"></path><path d="M5 25.52v55h62v-55zm27 3h8v10h-8zm0 17h8v9h-8zm-11 26h-7v-9h7zm0-17h-7v-9h7zm0-16h-7v-10h7zm22 41H29V64.36s6-8 14 0zm16-8h-7v-9h7zm0-17h-7v-9h7zm0-16h-7v-10h7zM76 54a3.5 3.5 0 0 1-3.5 3.5A3.5 3.5 0 0 1 69 54V33a3.5 3.5 0 0 1 3.5-3.5A3.5 3.5 0 0 1 76 33zM35.3 0L11.53 16.52h48.01L35.3 0z"></path></symbol><symbol viewBox='0 0 80.38 52.41' id='icon-lake'><title>lake</title><path d="M40.19 0C28.9 0 18.72 3.06 11.47 7.91S0 19.23 0 26.22s4.22 13.41 11.47 18.25 17.43 7.94 28.72 7.94 21.47-3.1 28.72-7.94 11.47-11.29 11.47-18.25-4.23-13.47-11.47-18.31S51.47 0 40.19 0zM22.56 14.16h.22a2 2 0 0 1 1.41.68c2.1 2.3 4 3.3 6.06 3.35s4.28-.84 7-3.31a2 2 0 0 1 3 0c2.77 2.5 5.1 3.39 7.06 3.35s3.95-1.06 6-3.35a2 2 0 0 1 1.56-.68 2 2 0 0 1 1.4 3.37c-2.54 2.8-5.56 4.58-8.9 4.66-2.89.07-5.8-1.11-8.66-3.38-2.86 2.26-5.74 3.45-8.62 3.38-3.35-.08-6.38-1.86-8.94-4.66a2.06 2.06 0 0 1-.41-2.12 2 2 0 0 1 1.75-1.25zm39.57 14.28A2 2 0 0 1 63.56 32c-3.31 3-6.66 4.57-10 4.5a11.66 11.66 0 0 1-7.43-3.22 11.69 11.69 0 0 1-7.44 3.22c-2.89.06-5.76-1.14-8.63-3.41-2.86 2.27-5.73 3.47-8.62 3.41-3.34-.08-6.36-1.85-8.91-4.66a2 2 0 0 1 1.34-3.34 2 2 0 0 1 1.6.66c2.08 2.28 4 3.29 6 3.34s4.28-.87 7-3.31a2.09 2.09 0 0 1 3 0c2.77 2.46 5.07 3.38 7 3.34s3.86-1 5.88-3.16a2.19 2.19 0 0 1 3.37.1c2 2.09 3.9 3 5.82 3.06S58 31.57 60.88 29a2 2 0 0 1 1.25-.56z"></path></symbol><symbol viewBox='0 0 89.83 36.55' id='icon-landing'><title>landing</title><path d="M8.79 18.44c1.24 0 16.09 2.68 23.41 1.65 22-3.11 43.31-6.21 49.86-9.32 8.69-4.14-4.9-10.14-23.83-6.6l-6.87 1.29-13.17-3.68-5.34 1L37 8.15l-17.69 3.3L5.34 0 0 1l7.38 12.71C3.54 14.73 4 18.38 8.79 18.44z"></path><circle cx="75.96" cy="18.43" r="2.96"></circle><path d="M39.63 22.22a3 3 0 1 0 3.45 2.36 3 3 0 0 0-3.45-2.36z"></path><circle cx="46.96" cy="23.86" r="2.96"></circle><path d="M4.34 32.55h85.48v4H4.34z"></path></symbol><symbol viewBox='0 0 555.8 447' id='icon-logo'><path d="M377 120.8a24.37 24.37 0 0 0 .1-2.7 27.31 27.31 0 0 0-27.4-27.4c-1 0-2 .1-2.9.1a27.39 27.39 0 0 0-47.6-2.4 31.08 31.08 0 0 0-4.3-.3 27.64 27.64 0 0 0-23.1 12.6 25.55 25.55 0 0 0-6.9-1 23.44 23.44 0 0 0-23.3 21.1z"></path><path d="M555.8 186.9a42.14 42.14 0 0 0-42.2-42.2c-1.5 0-3 .1-4.5.2a42.35 42.35 0 0 0-12.8-15.15 223.61 223.61 0 0 0-361-64.29A229 229 0 0 0 118.69 84a64.48 64.48 0 0 0-8.39-.57A63.09 63.09 0 0 0 71.44 196.2q-.7 5.87-1.1 11.81a7.46 7.46 0 0 0-3.34 3l-12.3 21.3a7.5 7.5 0 0 0 13 7.5l2.43-4.22a223.5 223.5 0 0 0 381.21 145.95 222.06 222.06 0 0 0 65.46-158 227.56 227.56 0 0 0-2.32-32.4h41.12c.1-1.34.2-2.94.2-4.24zm-93 129.48l-91.7-92.28c-14.2 15.5-100.7 91.1-103.5 93.6 0-.1 30.6-32.2 30.6-32.2l-17-16c-.1 0-7.6-7.5-7.6-7.5-1.9 1.52-48.9 38.72-122.56 92.3A192.61 192.61 0 0 1 100 223.5q0-7.4.55-14.66A63.11 63.11 0 0 0 148.1 96a193.17 193.17 0 0 1 310.66 27.58 42.75 42.75 0 0 0-23 17.55 48.72 48.72 0 0 0-6.6-.4 42.48 42.48 0 0 0-35.6 19.4 36.27 36.27 0 0 0-46.4 31h136.76a193.2 193.2 0 0 1-21.08 125.28z"></path><path d="M110.9 77.9a7.5 7.5 0 0 1-7.5-7.5v-25a7.5 7.5 0 0 1 15 0v25a7.5 7.5 0 0 1-7.5 7.5zm-37.79 9.8a7.52 7.52 0 0 1-6.42-3.6l-13.4-22a7.5 7.5 0 1 1 12.82-7.8l13.4 22a7.5 7.5 0 0 1-6.4 11.4zm-28.62 28.1a7.42 7.42 0 0 1-3.68-1L18 101.93a7.5 7.5 0 1 1 7.38-13.06l22.8 12.9a7.5 7.5 0 0 1-3.7 14zM34 155.5h-.14l-26.5-.5a7.5 7.5 0 1 1 .28-15l26.5.5a7.5 7.5 0 0 1-.14 15zm-12.19 51.9a7.5 7.5 0 0 1-3.76-14l23.7-13.7a7.5 7.5 0 0 1 7.5 13l-23.7 13.7a7.38 7.38 0 0 1-3.74 1zm91.09 49.9a7.5 7.5 0 0 1-7.5-7.5v-25.4a7.5 7.5 0 0 1 15 0v25.4a7.5 7.5 0 0 1-7.5 7.5zm51.01-14.5a7.48 7.48 0 0 1-6.47-3.7l-13-22.1a7.49 7.49 0 0 1 12.92-7.6l13 22.1a7.49 7.49 0 0 1-6.45 11.3zm34.68-38.5a7.44 7.44 0 0 1-3.76-1l-20.61-12a7.5 7.5 0 0 1 7.55-13l20.6 12a7.5 7.5 0 0 1-3.78 14zM187.3 154a7.5 7.5 0 0 1-.18-15l24.7-.6a7.5 7.5 0 1 1 .36 15l-24.7.6zM177 116.7a7.5 7.5 0 0 1-4-13.81l20.6-13.2a7.5 7.5 0 0 1 8.1 12.62l-20.6 13.21a7.51 7.51 0 0 1-4.1 1.18z"></path></symbol><symbol viewBox='0 0 93.42 85.37' id='icon-mountain-reflect'><title>mountain-reflect</title><path d="M75.4 49.54a20.78 20.78 0 0 1-6.08 1.2 20.85 20.85 0 0 1-6.09-1.2A18.4 18.4 0 0 0 58 48.47a18.4 18.4 0 0 0-5.21 1.07 20.85 20.85 0 0 1-6.09 1.2 20.91 20.91 0 0 1-6.09-1.2 18.33 18.33 0 0 0-5.21-1.07 18.4 18.4 0 0 0-5.22 1.07 20.78 20.78 0 0 1-6.08 1.2 20.85 20.85 0 0 1-6.1-1.2 20.36 20.36 0 0 0-4.88-1l3.31 5.16 5.39-.88L26 62.64l4.11.77 5.74 11.29 7-1.09 5.61 11.64 3.35.12 3.92-5.26 4-2.65 1-6.17 5.08.7 6-14.57 4.61.76 4.58-9.7h-.36a18.4 18.4 0 0 0-5.24 1.06zM92.22 44.77c-1.21-.24-2.4-.56-3.66-.9a44.41 44.41 0 0 0-5.45-1.22l-5.44-7.78-1.25.26-3.63-7-2.62 2.5L65.54 20l-3.75 3.5L50.54 0l-1 1.44-2.08 6.61 5.22 7.56-2.46 1.71-6.07-8.78 2-6.29-.63-.5-2.75 2-6.14 14.41 1.81 5.06 3.92 4.48-2.26 2-4.29-4.91-1.75-4.89-1.64-.24-5.88 7.3 5.1 3.31L30 32.76l-5.4-3.51h-2.31L11.4 42.54a36.46 36.46 0 0 0-6.54 1.33c-1.26.34-2.45.66-3.66.9A1.51 1.51 0 0 0 0 46.54a1.49 1.49 0 0 0 1.8 1.17c1.3-.26 2.59-.61 3.85-.94a33.19 33.19 0 0 1 5.9-1.23 11.73 11.73 0 0 1 1.2-.07h.05a18.4 18.4 0 0 1 5.2 1.07 20.85 20.85 0 0 0 6.09 1.2 20.84 20.84 0 0 0 6.08-1.2 18.4 18.4 0 0 1 5.22-1.07 18.33 18.33 0 0 1 5.21 1.07 20.91 20.91 0 0 0 6.09 1.2 20.85 20.85 0 0 0 6.09-1.2A18.4 18.4 0 0 1 58 45.47a18.4 18.4 0 0 1 5.22 1.07 20.85 20.85 0 0 0 6.09 1.2 20.78 20.78 0 0 0 6.08-1.2 18.4 18.4 0 0 1 5.22-1.07c.46 0 .91 0 1.36.08a34.69 34.69 0 0 1 5.76 1.22c1.25.33 2.54.68 3.85.95a1.51 1.51 0 0 0 .3 0 1.5 1.5 0 0 0 .29-3z"></path></symbol><symbol viewBox='0 0 38 48' id='icon-nepal-flag'><title>nepal-flag</title><path d="M0 0v48h37.14L12.82 23.73H38zm10.18 13.28l.33 1.26 1.12-.67-.19 1.29 1.29-.16-.67 1.12 1.26.32-1 .71v.06h.09-.06l.55.42a7 7 0 0 0 2.79-3.16 6.31 6.31 0 0 1-12.61 0 6.84 6.84 0 0 0 2.78 3.16l.56-.42h-.07.09v-.11l-1-.72 1.27-.32L6.08 15l1.29.19-.19-1.28 1.08.63h.05l.31-1.19.77 1 .78-1zM9.4 29.42l1 2.31H10.57l2-1.51-.31 2.49v.07l.07.05 2.5-.31-1.51 2V34.67l2.32 1-2.32 1v.13l1.51 2-2.5-.31h-.07v.07l.26 2.44-2-1.51h-.17l-1 2.31-1-2.31H8.28L6.29 41l.31-2.5v-.07h-.07L4 38.74l1.52-2v-.16l-2.32-1 2.32-1v-.13L4 32.52l2.51.31h.07v-.07l-.31-2.49 2 1.51h.09l.07-.05 1-2.31z"></path></symbol><symbol viewBox='0 0 23.78 16.62' id='icon-pass'><title>pass</title><path d="M15 0l-4.34 10c.6 1.75 2.5 3.35 4.28 6.63h8.84z"></path><path d="M7.75 12.5c-2.34-1.93.2-5.1 2.32-5.87L8.63 5.39 0 16.6h12.59c-1.28-1.82-3.07-2.76-4.45-3.78z"></path></symbol><symbol viewBox='0 0 72.03 90' id='icon-relax'><title>relax</title><path d="M71.14 18.94a3.68 3.68 0 0 0 .5-4 3.27 3.27 0 0 0-2-1.48L53.77 5.17a3.51 3.51 0 0 0-1-.33 8.42 8.42 0 0 0-14.38-1.45 2.63 2.63 0 0 0-2.14.07S18.8 12.4 18.52 12.89c-.93 1.64 0 3.93 2.06 5.11l12.65 8.12a6.48 6.48 0 0 0 1.24.61c-.28 3.19-.81 9.22-1 11.71a70.86 70.86 0 0 1-1.64 10.07s-11.1-2-11.53-2a5.58 5.58 0 0 0-5.86 2.79L.7 73c-1.18 2-.84 4.42.77 5.44 1.6 1 3.91.29 5.24-1.64l11.13-16.25L20.24 86c.22 2.33 1.89 4.08 3.78 4s3.36-2 3.32-4.38c0 0-.55-27.89-.6-28.17L42.63 62a5.79 5.79 0 0 0 7.09-4c.07-.3.63-2.23.71-3 0 0 1.84-7.8 2.75-14.55.29-2.15.68-7 .92-10.34a7.38 7.38 0 0 0 1.51-.71l13.78-8.86a9.87 9.87 0 0 0 1.75-1.6zM52 21a6.44 6.44 0 0 0-3.5-1.49l-6.65-.71a6.48 6.48 0 0 0-3.59.64 6.75 6.75 0 0 0-.9-.55l-9-4.6 8.39-5A8.42 8.42 0 0 0 53 11.48l7.79 5.08z"></path></symbol><symbol viewBox='0 0 204.56 204.4' id='icon-sun'>
<title>sun</title><circle id="circle" class="fbd682---honey-bees" cx="102.83" cy="101.1" r="63.1"></circle><path class="fbd682---honey-bees" d="M101.93 0h3v25h-3z"></path><path class="fbd682---honey-bees" transform="rotate(-31.35 58.923 23.8)" d="M57.43 10.92h3v25.76h-3z"></path><path class="fbd682---honey-bees" transform="rotate(-60.5 25.631 56.448)" d="M24.13 43.35h3v26.2h-3z"></path><path class="fbd682---honey-bees" transform="rotate(-88.92 13.282 102.35)" d="M11.78 89.1h3v26.5h-3z"></path><path class="fbd682---honey-bees" transform="rotate(-30.02 26.17 147.652)" d="M12.49 146.15h27.38v3H12.49z"></path><path class="fbd682---honey-bees" transform="rotate(-60 59.868 180.046)" d="M47.58 178.55h24.6v3h-24.6z"></path><path class="fbd682---honey-bees" d="M103.93 179h3v25.4h-3z"></path><path class="fbd682---honey-bees" transform="rotate(-30.46 149.964 178.874)" d="M148.43 166.03h3v25.64h-3z"></path><path class="fbd682---honey-bees" transform="rotate(-59.78 180.817 145.398)" d="M179.33 133.48h3v23.84h-3z"></path><path class="fbd682---honey-bees" transform="rotate(-1.38 192.283 100.725)" d="M179.82 99.3h24.71v3h-24.71z"></path><path class="fbd682---honey-bees" transform="rotate(-32.66 179.81 57.204)" d="M167.6 55.7h24.47v3H167.6z"></path><path class="fbd682---honey-bees" transform="rotate(-60.87 147.168 24.76)" d="M134.76 23.25h24.85v3h-24.85z"></path></symbol><symbol viewBox='0 0 869 799.28' id='icon-tara-plane'><title>tara-plane</title><path d="M828.62 3.62c-.74 0-15.23 1.66-69.28 40.81C742 57 726.54 65.33 713.05 70.91l-.26.11a6.69 6.69 0 0 0-.79.44l-9.78 4.05c-15.05 5.84-48.34 8.16-49 8.3-14.12 2.26-28 15.34-45.76 32.27s-39.56 42.41-68.16 73.82a542.77 542.77 0 0 0-49.76 38.74.3.3 0 0 1-.26.06l-36.81-6.35a.32.32 0 0 1-.26-.36.25.25 0 0 1 0-.11l4.39-8a.34.34 0 0 0 0-.37l-5.82-6.32a.3.3 0 0 1-.06-.36A226.36 226.36 0 0 0 463.57 175c5.13-16.36-3-10.79-13.8-6.83-10.42 3.83-23 11.65-23.78 12.17h-.11l-6.1 1.24a.29.29 0 0 1-.31-.12c-4.51-5.6-8.22-4.17-12.63-3.4-15.7 7.08-22.37 22.49-22.85 23.66a.18.18 0 0 1-.1.11l-8.9 6.87-.49.13-151.24-26.15c-10.2-1.77-28.38-6.15-36.09.77-18 16.08-44.47 54.93-71.48 85.28a11.83 11.83 0 0 0 1 16.71 12 12 0 0 0 2.8 1.86c73.95 34.89 170.34 72.16 164.34 76.82a.35.35 0 0 0-.14.25l-.17 17.45a.35.35 0 0 0 .19.3l55.95 23.26a.31.31 0 0 1 .18.4.41.41 0 0 1-.07.11c-18.81 20.28-41.49 44.73-44.49 47.84a53.41 53.41 0 0 0-7.26 9l-14.1 20.36-.07.07c-2.13 1.63-96.07 73.57-110.76 84.47-14.2 10.56-20.9 5.46-21.48 5l-.07-.07-78.18-26.2a.23.23 0 0 1-.07-.07c-.56-.46-7.25-5.61-17.29 0-10.51 5.82-28.83 29.84-35.43 36.71-6.45 6.68-2.07 14.52-1.86 14.88l67 87S89 700.63 87.46 720.92c-1.48 19.66 20 3.43 21.32 2.4a.25.25 0 0 1 .15-.05l5.48-.51a.33.33 0 0 1 .34.23l18.59 68a11.28 11.28 0 0 0 18.08 5.75l49.3-40.7a11.29 11.29 0 0 0 4-10.11l-7.18-57a.37.37 0 0 1 .1-.29 21 21 0 0 1 2.87-2.17l56.61-40.9.09-.1 9.2-16 .08-.08c2.73-2 117.49-84.53 128-93.65 7.41-9.53 21.56-23.75 38.09-41.07a.32.32 0 0 1 .45 0 .47.47 0 0 1 .06.09L459 551.39a.34.34 0 0 0 .3.18l17.43-.78a.41.41 0 0 0 .25-.15c4.44-6.17 45.06 88.87 82.51 161.56a11.81 11.81 0 0 0 18.68 3.11c29.37-28 67.27-55.84 82.74-74.41 6.63-8 1.62-26-.5-36.09l-35.16-167.9a.39.39 0 0 1 .14-.33c29.83-19.53 51.76-54.49 51.93-54.77l8.22-14.88a.34.34 0 0 0 0-.37l-5.82-6.33a.29.29 0 0 1-.06-.35 227.69 227.69 0 0 0 12.91-31.94c5.13-16.35-3-10.79-13.8-6.83-10.42 3.84-23 11.65-23.78 12.18l-.07.07-6.11 1.24a.28.28 0 0 1-.3-.12c-4.51-5.6-8.23-4.17-12.64-3.4v.05c-15.71 7.08-22.38 22.49-22.85 23.66a.23.23 0 0 1-.11.11l-3.65 2.82a.32.32 0 0 1-.44-.07.23.23 0 0 1-.06-.12l-6.3-30a.29.29 0 0 1 0-.22c20.24-37 28.85-44.51 29.15-44.77 1.27-1.32 206.74-218 208.9-220.28 13.85-17.21 8.8-9.47 24.3-31.27v-.05C884.17-14 830.17 3.11 828.62 3.62zM342.4 464.56a6.46 6.46 0 0 1 .16 9.09l-11.23 11.63a6.45 6.45 0 0 1-9.09.15l-8.88-8.57a6.44 6.44 0 0 1-.16-9.08l11.23-11.64a6.45 6.45 0 0 1 9.09-.15zm40.31-40.31a6.44 6.44 0 0 1 .16 9.09L371.64 445a6.43 6.43 0 0 1-9.08.15l-8.88-8.57a6.43 6.43 0 0 1-.17-9.08l11.24-11.63a6.44 6.44 0 0 1 9.09-.16zm35.41-38.1a6.46 6.46 0 0 1 .16 9.09L407 406.87a6.43 6.43 0 0 1-9 .13l-8.88-8.57a6.43 6.43 0 0 1-.16-9.08l11.23-11.63a6.44 6.44 0 0 1 9.09-.16zm33.34-34.53a6.45 6.45 0 0 1 .16 9.09l-11.23 11.63a6.45 6.45 0 0 1-9.09.16l-8.87-8.58a6.43 6.43 0 0 1-.17-9.08l11.23-11.63a6.44 6.44 0 0 1 9.09-.16zm45.13-48.17a6.46 6.46 0 0 1 .16 9.09l-11.23 11.63a6.45 6.45 0 0 1-9.09.16l-8.88-8.58a6.43 6.43 0 0 1-.16-9.08L478.62 295a6.44 6.44 0 0 1 9.09-.16zM525.07 274a6.46 6.46 0 0 1 .16 9.09L514 294.68a6.45 6.45 0 0 1-9.09.15l-8.91-8.57a6.44 6.44 0 0 1-.16-9.08l11.23-11.64a6.46 6.46 0 0 1 9.09-.16zm44.38-50.28a6.44 6.44 0 0 1 .16 9.09l-11.23 11.59a6.43 6.43 0 0 1-9.08.15l-8.88-8.55a6.44 6.44 0 0 1-.17-9.08l11.24-11.64a6.45 6.45 0 0 1 9.09-.15zm34.74-36a6.46 6.46 0 0 1 .16 9.09l-11.24 11.63a6.44 6.44 0 0 1-9.08.16l-8.88-8.6a6.43 6.43 0 0 1-.16-9.08l11.23-11.63a6.44 6.44 0 0 1 9.09-.16zm25.7-26.62a6.47 6.47 0 0 1 .16 9.1l-11.23 11.63a6.45 6.45 0 0 1-9.09.15l-8.88-8.57a6.45 6.45 0 0 1-.16-9.09l11.23-11.63a6.46 6.46 0 0 1 9.09-.16zm57.6-44.46c-14.24 14.51-16.18 18.43-23.72 11.84s-19-17.22-19-17.22-3.65-3.34-.81-8.94c2-4 6.64-11.45 9.24-15.61a.62.62 0 0 1 .46-.14 7.76 7.76 0 0 1 1.18 0 122.15 122.15 0 0 0 48.5-8.28l3.89-1.61a.32.32 0 0 1 .42.17.33.33 0 0 1 0 .24 29.27 29.27 0 0 0-1.85 5.28c-2.57 10.11-4.06 19.8-18.29 34.31z"></path><path d="M73.86 689c-2.37-3.3-45-58.35-48.53-63L2.24 656.09a11 11 0 0 0 6.17 17.35z"></path></symbol><symbol viewBox='0 0 105.67 87.02' id='icon-tea-house'><title>tea-house</title><path d="M13.64 39.28l-.04 47.74h8.44l.06-53.96 30.73-22.58L83.7 33.16l.05 53.86h8.44l-.05-47.67 8.53 6.28 5-6.8L52.83 0 0 38.83l5 6.8 8.64-6.35z"></path><path d="M69.43 73.39H32a1.78 1.78 0 0 0-1.51 1.85c.1 2 2.49 4.53 4 4.54H67c1.49 0 3.89-2.52 4-4.54a1.79 1.79 0 0 0-1.57-1.85zM64.81 49.59a2.42 2.42 0 0 0-.47 0H37c-1.22 0-2.35.75-2.37 1.71v.3l1.91 15.75c0 2.41 2.6 4.32 5.39 4.33h18.14a5.24 5.24 0 0 0 5.09-3.13c5.56-.2 10-4.36 10-9.47s-4.63-9.46-10.35-9.49zm.89 14.77l1.06-10a5.24 5.24 0 0 1 3.71 4.86 5.37 5.37 0 0 1-4.77 5.14z"></path></symbol><symbol viewBox='0 0 118.85 99.76' id='icon-trekking-couple'><title>trekking-couple</title><path d="M95.51 97.86a6.21 6.21 0 0 1-2-.33A5.4 5.4 0 0 1 90 92.88l-1.49-21.06-7-5.42 4.85-9.7 11.4 8.59a.93.93 0 0 1 .33.21l.11.11a2.08 2.08 0 0 1 .8 1.63l1.8 25a5.07 5.07 0 0 1-1.33 3.87 5.34 5.34 0 0 1-3.96 1.75zM75.18 25.36a2.36 2.36 0 0 1-1.55-.65 11.16 11.16 0 0 1-1.75-2.06A9.73 9.73 0 0 1 85.34 9.26 9.15 9.15 0 0 1 93 5.16a9.46 9.46 0 0 1 9.3 9.4A9.22 9.22 0 0 1 84 16a9 9 0 0 0-2.44 1 8.39 8.39 0 0 0-4 6.32A2.36 2.36 0 0 1 76 25.25a1.92 1.92 0 0 1-.82.11z"></path><path d="M114.58 99.76a2.34 2.34 0 0 1-2.29-2.15L108.63 44l-10.52 2.84a8.09 8.09 0 0 1-1.63.22 6.07 6.07 0 0 1-4.47-2l-2.08-2.24-9.09 20.64-14.33 30.71a5.47 5.47 0 0 1-5 3.09 6.21 6.21 0 0 1-2-.33 5.68 5.68 0 0 1-3-3 5.28 5.28 0 0 1 .1-4.09L71 59.15l2-7.66a7.43 7.43 0 0 1-4.66.25A7.21 7.21 0 0 1 64 48.28a7.34 7.34 0 0 1-.67-5.56l2.8-10.19A7.24 7.24 0 0 1 78.78 30l.17-.18a7.83 7.83 0 0 1 7.33-5.22 7.74 7.74 0 0 1 6.42 3.32l.33.32 5.48 6 12.8-3.43a6.63 6.63 0 0 1 1.53-.21 6 6 0 0 1 5.79 4.47 5.44 5.44 0 0 1-.67 4.51 6.35 6.35 0 0 1-3.68 2.8l-1.21.3 3.77 54.48a2.3 2.3 0 0 1-2 2.52h-.21zM41.76 16.68a8.34 8.34 0 1 1 8.34-8.34 8.34 8.34 0 0 1-8.34 8.34zM60.79 44.7a3.65 3.65 0 0 0-2.28-3.85L46 36.38l-5.72-15.57a9.84 9.84 0 0 0-6.77-5.43 7.3 7.3 0 0 0-7.59 3.41c.41-1.6.66-2.58.66-2.6a7.57 7.57 0 0 0 .26-2 8.08 8.08 0 0 0-8-8.17h-.1a8.08 8.08 0 0 0-7.91 6.44l-7.69 30A5.88 5.88 0 0 0 3 43.69v.63a8.1 8.1 0 0 0 8 8.09h.07a8.41 8.41 0 0 0 7-3.87l-4.95 20.58L.83 88.35a4.34 4.34 0 0 0-.78 2.56 5.49 5.49 0 0 0 1.35 4.42 6.25 6.25 0 0 0 4.18 2.14h.6a5.64 5.64 0 0 0 5.05-3l13.2-20.74c.27-.56.63-1.33 1.13-2.44l8.65-36.86-.21-.69-1.21-2.64a.63.63 0 0 1 .28-.83.61.61 0 0 1 .81.3l4.73 10.18.31.64a3.87 3.87 0 0 0 1.72 1.51l11.55 4.27-7 14-.73-.76L32.92 51l-2.64 11.9 8.39 7.46.06 3.91-10.22 20.59V95c0 .17.19 1.74 1.24 2.18a2.09 2.09 0 0 0 2.13-.57l.13-.17c.45-.91 3.27-6.66 6.85-13.91l.14 9.55a5.41 5.41 0 0 0 5.15 4.78 5.19 5.19 0 0 0 4.08-1.5 5.87 5.87 0 0 0 1.87-4L50 69.22a6.94 6.94 0 0 0-1.49-4.76l-.5-.52c3.72-7.55 6.85-13.88 7.65-15.5l.19.07H56a4.32 4.32 0 0 0 4.79-3.79z"></path></symbol><symbol viewBox='0 0 94.55 96.88' id='icon-peak-ascent'><title>peak-ascent</title><path d="M6.66 96.88h80L80.05 86.2h14.5l-27-45.06-7.63 12.66-10.25-16.51V26.22H77.3L65.71 13.11 77.3 0H43.67v37.29L34 52.87l-7-11.72L0 86.21h13.24zm60.86-44.07L84 80.21h-7.67L63.48 59.53zM38.67 81l8-9.44 8 9.43 7.88-11.67L76 90.87H17.45l13.38-21.54zm-28.14-.8L27 52.8l3.47 5.79L17 80.2z"></path></symbol><symbol viewBox='0 0 72.03 90' id='icon-relax'><title>relax</title><path d="M71.14 18.94a3.68 3.68 0 0 0 .5-4 3.27 3.27 0 0 0-2-1.48L53.77 5.17a3.51 3.51 0 0 0-1-.33 8.42 8.42 0 0 0-14.38-1.45 2.63 2.63 0 0 0-2.14.07S18.8 12.4 18.52 12.89c-.93 1.64 0 3.93 2.06 5.11l12.65 8.12a6.48 6.48 0 0 0 1.24.61c-.28 3.19-.81 9.22-1 11.71a70.86 70.86 0 0 1-1.64 10.07s-11.1-2-11.53-2a5.58 5.58 0 0 0-5.86 2.79L.7 73c-1.18 2-.84 4.42.77 5.44 1.6 1 3.91.29 5.24-1.64l11.13-16.25L20.24 86c.22 2.33 1.89 4.08 3.78 4s3.36-2 3.32-4.38c0 0-.55-27.89-.6-28.17L42.63 62a5.79 5.79 0 0 0 7.09-4c.07-.3.63-2.23.71-3 0 0 1.84-7.8 2.75-14.55.29-2.15.68-7 .92-10.34a7.38 7.38 0 0 0 1.51-.71l13.78-8.86a9.87 9.87 0 0 0 1.75-1.6zM52 21a6.44 6.44 0 0 0-3.5-1.49l-6.65-.71a6.48 6.48 0 0 0-3.59.64 6.75 6.75 0 0 0-.9-.55l-9-4.6 8.39-5A8.42 8.42 0 0 0 53 11.48l7.79 5.08z"></path></symbol><symbol viewBox='0 0 80.38 52.41' id='icon-lake'><title>lake</title><path d="M40.19 0C28.9 0 18.72 3.06 11.47 7.91S0 19.23 0 26.22s4.22 13.41 11.47 18.25 17.43 7.94 28.72 7.94 21.47-3.1 28.72-7.94 11.47-11.29 11.47-18.25-4.23-13.47-11.47-18.31S51.47 0 40.19 0zM22.56 14.16h.22a2 2 0 0 1 1.41.68c2.1 2.3 4 3.3 6.06 3.35s4.28-.84 7-3.31a2 2 0 0 1 3 0c2.77 2.5 5.1 3.39 7.06 3.35s3.95-1.06 6-3.35a2 2 0 0 1 1.56-.68 2 2 0 0 1 1.4 3.37c-2.54 2.8-5.56 4.58-8.9 4.66-2.89.07-5.8-1.11-8.66-3.38-2.86 2.26-5.74 3.45-8.62 3.38-3.35-.08-6.38-1.86-8.94-4.66a2.06 2.06 0 0 1-.41-2.12 2 2 0 0 1 1.75-1.25zm39.57 14.28A2 2 0 0 1 63.56 32c-3.31 3-6.66 4.57-10 4.5a11.66 11.66 0 0 1-7.43-3.22 11.69 11.69 0 0 1-7.44 3.22c-2.89.06-5.76-1.14-8.63-3.41-2.86 2.27-5.73 3.47-8.62 3.41-3.34-.08-6.36-1.85-8.91-4.66a2 2 0 0 1 1.34-3.34 2 2 0 0 1 1.6.66c2.08 2.28 4 3.29 6 3.34s4.28-.87 7-3.31a2.09 2.09 0 0 1 3 0c2.77 2.46 5.07 3.38 7 3.34s3.86-1 5.88-3.16a2.19 2.19 0 0 1 3.37.1c2 2.09 3.9 3 5.82 3.06S58 31.57 60.88 29a2 2 0 0 1 1.25-.56z"></path></symbol><symbol viewBox='0 0 76 89.47' id='icon-base-camp'><title>base-camp</title><path d="M57.06 34.38L39 21.31v-3.84h37v-.16l-10-5.79 10-5.8v-.25H39v-.92a2.1 2.1 0 0 0 1.38-2.19 2.41 2.41 0 0 0-4.81 0A2.14 2.14 0 0 0 37 4.55v16.82l-18 13L0 48v41.47h38V48.81C40.66 71 51.1 86.62 54 89.47h22V48z"></path></symbol><symbol viewBox='0 0 869 799.28' id='icon-tara-plane'><title>tara-plane</title><path d="M828.62 3.62c-.74 0-15.23 1.66-69.28 40.81C742 57 726.54 65.33 713.05 70.91l-.26.11a6.69 6.69 0 0 0-.79.44l-9.78 4.05c-15.05 5.84-48.34 8.16-49 8.3-14.12 2.26-28 15.34-45.76 32.27s-39.56 42.41-68.16 73.82a542.77 542.77 0 0 0-49.76 38.74.3.3 0 0 1-.26.06l-36.81-6.35a.32.32 0 0 1-.26-.36.25.25 0 0 1 0-.11l4.39-8a.34.34 0 0 0 0-.37l-5.82-6.32a.3.3 0 0 1-.06-.36A226.36 226.36 0 0 0 463.57 175c5.13-16.36-3-10.79-13.8-6.83-10.42 3.83-23 11.65-23.78 12.17h-.11l-6.1 1.24a.29.29 0 0 1-.31-.12c-4.51-5.6-8.22-4.17-12.63-3.4-15.7 7.08-22.37 22.49-22.85 23.66a.18.18 0 0 1-.1.11l-8.9 6.87-.49.13-151.24-26.15c-10.2-1.77-28.38-6.15-36.09.77-18 16.08-44.47 54.93-71.48 85.28a11.83 11.83 0 0 0 1 16.71 12 12 0 0 0 2.8 1.86c73.95 34.89 170.34 72.16 164.34 76.82a.35.35 0 0 0-.14.25l-.17 17.45a.35.35 0 0 0 .19.3l55.95 23.26a.31.31 0 0 1 .18.4.41.41 0 0 1-.07.11c-18.81 20.28-41.49 44.73-44.49 47.84a53.41 53.41 0 0 0-7.26 9l-14.1 20.36-.07.07c-2.13 1.63-96.07 73.57-110.76 84.47-14.2 10.56-20.9 5.46-21.48 5l-.07-.07-78.18-26.2a.23.23 0 0 1-.07-.07c-.56-.46-7.25-5.61-17.29 0-10.51 5.82-28.83 29.84-35.43 36.71-6.45 6.68-2.07 14.52-1.86 14.88l67 87S89 700.63 87.46 720.92c-1.48 19.66 20 3.43 21.32 2.4a.25.25 0 0 1 .15-.05l5.48-.51a.33.33 0 0 1 .34.23l18.59 68a11.28 11.28 0 0 0 18.08 5.75l49.3-40.7a11.29 11.29 0 0 0 4-10.11l-7.18-57a.37.37 0 0 1 .1-.29 21 21 0 0 1 2.87-2.17l56.61-40.9.09-.1 9.2-16 .08-.08c2.73-2 117.49-84.53 128-93.65 7.41-9.53 21.56-23.75 38.09-41.07a.32.32 0 0 1 .45 0 .47.47 0 0 1 .06.09L459 551.39a.34.34 0 0 0 .3.18l17.43-.78a.41.41 0 0 0 .25-.15c4.44-6.17 45.06 88.87 82.51 161.56a11.81 11.81 0 0 0 18.68 3.11c29.37-28 67.27-55.84 82.74-74.41 6.63-8 1.62-26-.5-36.09l-35.16-167.9a.39.39 0 0 1 .14-.33c29.83-19.53 51.76-54.49 51.93-54.77l8.22-14.88a.34.34 0 0 0 0-.37l-5.82-6.33a.29.29 0 0 1-.06-.35 227.69 227.69 0 0 0 12.91-31.94c5.13-16.35-3-10.79-13.8-6.83-10.42 3.84-23 11.65-23.78 12.18l-.07.07-6.11 1.24a.28.28 0 0 1-.3-.12c-4.51-5.6-8.23-4.17-12.64-3.4v.05c-15.71 7.08-22.38 22.49-22.85 23.66a.23.23 0 0 1-.11.11l-3.65 2.82a.32.32 0 0 1-.44-.07.23.23 0 0 1-.06-.12l-6.3-30a.29.29 0 0 1 0-.22c20.24-37 28.85-44.51 29.15-44.77 1.27-1.32 206.74-218 208.9-220.28 13.85-17.21 8.8-9.47 24.3-31.27v-.05C884.17-14 830.17 3.11 828.62 3.62zM342.4 464.56a6.46 6.46 0 0 1 .16 9.09l-11.23 11.63a6.45 6.45 0 0 1-9.09.15l-8.88-8.57a6.44 6.44 0 0 1-.16-9.08l11.23-11.64a6.45 6.45 0 0 1 9.09-.15zm40.31-40.31a6.44 6.44 0 0 1 .16 9.09L371.64 445a6.43 6.43 0 0 1-9.08.15l-8.88-8.57a6.43 6.43 0 0 1-.17-9.08l11.24-11.63a6.44 6.44 0 0 1 9.09-.16zm35.41-38.1a6.46 6.46 0 0 1 .16 9.09L407 406.87a6.43 6.43 0 0 1-9 .13l-8.88-8.57a6.43 6.43 0 0 1-.16-9.08l11.23-11.63a6.44 6.44 0 0 1 9.09-.16zm33.34-34.53a6.45 6.45 0 0 1 .16 9.09l-11.23 11.63a6.45 6.45 0 0 1-9.09.16l-8.87-8.58a6.43 6.43 0 0 1-.17-9.08l11.23-11.63a6.44 6.44 0 0 1 9.09-.16zm45.13-48.17a6.46 6.46 0 0 1 .16 9.09l-11.23 11.63a6.45 6.45 0 0 1-9.09.16l-8.88-8.58a6.43 6.43 0 0 1-.16-9.08L478.62 295a6.44 6.44 0 0 1 9.09-.16zM525.07 274a6.46 6.46 0 0 1 .16 9.09L514 294.68a6.45 6.45 0 0 1-9.09.15l-8.91-8.57a6.44 6.44 0 0 1-.16-9.08l11.23-11.64a6.46 6.46 0 0 1 9.09-.16zm44.38-50.28a6.44 6.44 0 0 1 .16 9.09l-11.23 11.59a6.43 6.43 0 0 1-9.08.15l-8.88-8.55a6.44 6.44 0 0 1-.17-9.08l11.24-11.64a6.45 6.45 0 0 1 9.09-.15zm34.74-36a6.46 6.46 0 0 1 .16 9.09l-11.24 11.63a6.44 6.44 0 0 1-9.08.16l-8.88-8.6a6.43 6.43 0 0 1-.16-9.08l11.23-11.63a6.44 6.44 0 0 1 9.09-.16zm25.7-26.62a6.47 6.47 0 0 1 .16 9.1l-11.23 11.63a6.45 6.45 0 0 1-9.09.15l-8.88-8.57a6.45 6.45 0 0 1-.16-9.09l11.23-11.63a6.46 6.46 0 0 1 9.09-.16zm57.6-44.46c-14.24 14.51-16.18 18.43-23.72 11.84s-19-17.22-19-17.22-3.65-3.34-.81-8.94c2-4 6.64-11.45 9.24-15.61a.62.62 0 0 1 .46-.14 7.76 7.76 0 0 1 1.18 0 122.15 122.15 0 0 0 48.5-8.28l3.89-1.61a.32.32 0 0 1 .42.17.33.33 0 0 1 0 .24 29.27 29.27 0 0 0-1.85 5.28c-2.57 10.11-4.06 19.8-18.29 34.31z"></path><path d="M73.86 689c-2.37-3.3-45-58.35-48.53-63L2.24 656.09a11 11 0 0 0 6.17 17.35z"></path></symbol></svg>